<?xml version="1.0" standalone="no"?><!DOCTYPE svg PUBLIC "-//W3C//DTD SVG 1.1//EN" "http://www.w3.org/Graphics/SVG/1.1/DTD/svg11.dtd"><svg t="1729166800456" class="icon" viewBox="0 0 1024 1024" version="1.1" xmlns="http://www.w3.org/2000/svg" p-id="3204" xmlns:xlink="http://www.w3.org/1999/xlink" width="200" height="200"><path d="M832 384v96c0 212-172 384-384 384H32l384-480V304c0-114.8 93.6-208 208.4-207.6 94.4 0 176.8 64 200.8 155.2L928 320l-96 64z" opacity=".2" p-id="3205" fill="#1296db"></path><path d="M656 272m-48 0a48 48 0 1 0 96 0 48 48 0 1 0-96 0Z" p-id="3206" fill="#1296db"></path><path d="M320 768c-7.2 0-14.4-2.4-20.4-7.6-13.6-11.2-15.6-31.6-4-45.2l160-192c11.2-13.6 31.6-15.6 45.2-4 13.6 11.2 15.6 31.6 4 45.2l-160 192c-6.4 7.6-15.6 11.6-24.8 11.6z" p-id="3207" fill="#1296db"></path><path d="M448 896H32c-12.4 0-23.6-7.2-28.8-18-5.2-11.2-4-24.4 4-34L384 372.8V304c0.4-132.4 108-239.6 240-239.6h0.4c104.8 0 196.8 68.4 228.4 167.2l93.2 62c8.8 6 14.4 16 14.4 26.8s-5.2 20.8-14.4 26.8L864 401.2V480c0 229.2-186.8 416-416 416z m-349.6-64H448c194 0 352-158 352-352V384c0-10.8 5.2-20.8 14.4-26.8l56-37.2-62.8-41.6c-6.4-4.4-11.2-10.8-13.2-18.4-20.4-77.2-90-131.2-170-131.2h-0.4c-96.8 0-176 78.8-176 175.6v80c0 7.2-2.4 14.4-7.2 20L98.4 832z" p-id="3208" fill="#1296db"></path></svg>